<svg width="99" height="22" viewBox="0 0 99 22" fill="none" xmlns="http://www.w3.org/2000/svg">
<path d="M11.1742 2.22653L13.8628 7.67327L19.8751 8.55205L15.5247 12.7894L16.5514 18.7756L11.1742 15.9478L5.79711 18.7756L6.82381 12.7894L2.47339 8.55205L8.48568 7.67327L11.1742 2.22653Z" fill="#161618"/>
<path d="M30.3161 2.22659L33.0047 7.67333L39.0169 8.55211L34.6665 12.7894L35.6932 18.7756L30.3161 15.9478L24.939 18.7756L25.9657 12.7894L21.6152 8.55211L27.6275 7.67333L30.3161 2.22659Z" fill="#161618"/>
<path d="M49.4582 2.22659L52.1467 7.67333L58.159 8.55211L53.8086 12.7894L54.8353 18.7756L49.4582 15.9478L44.081 18.7756L45.1078 12.7894L40.7573 8.55211L46.7696 7.67333L49.4582 2.22659Z" fill="#161618"/>
<path d="M68.5999 2.22659L71.2885 7.67333L77.3008 8.55211L72.9503 12.7894L73.977 18.7756L68.5999 15.9478L63.2228 18.7756L64.2495 12.7894L59.899 8.55211L65.9113 7.67333L68.5999 2.22659Z" fill="#161618"/>
<path d="M87.7417 2.71803L90.2353 7.76961C90.2669 7.83374 90.3281 7.87822 90.3988 7.88856L95.9753 8.70364L91.9404 12.6336C91.8891 12.6836 91.8657 12.7556 91.8778 12.8262L92.83 18.3779L87.843 15.7553C87.7796 15.722 87.7039 15.722 87.6405 15.7553L82.6535 18.3779L83.6057 12.8262C83.6178 12.7556 83.5944 12.6836 83.5431 12.6336L79.5082 8.70364L85.0846 7.88856C85.1554 7.87822 85.2166 7.83374 85.2482 7.76961L87.7417 2.71803Z" stroke="#161618" stroke-width="0.435043" stroke-linecap="round" stroke-linejoin="round"/>
<path d="M87.7417 15.9478L87.7417 2.22659L85.0532 7.67333L79.0409 8.55211L83.3913 12.7894L82.3646 18.7756L87.7417 15.9478Z" fill="#161618"/>
</svg>
