<!DOCTYPE svg PUBLIC "-//W3C//DTD SVG 1.1//EN" "http://www.w3.org/Graphics/SVG/1.1/DTD/svg11.dtd">

<!-- Uploaded to: SVG Repo, www.svgrepo.com, Transformed by: SVG Repo Mixer Tools -->
<svg version="1.1" id="Layer_1" xmlns="http://www.w3.org/2000/svg" xmlns:xlink="http://www.w3.org/1999/xlink" viewBox="-51.2 -51.2 614.40 614.40" xml:space="preserve" width="50px" height="50px" fill="#000000" transform="rotate(270)">

<g id="SVGRepo_bgCarrier" stroke-width="0">

<rect x="-51.2" y="-51.2" width="614.40" height="614.40" rx="307.2" fill="#7ed0ec" strokewidth="0"/>

</g>

<g id="SVGRepo_tracerCarrier" stroke-linecap="round" stroke-linejoin="round"/>

<g id="SVGRepo_iconCarrier"> <polygon style="fill:#F9545B;" points="365.423,52.815 262.697,155.541 335.492,228.336 504.221,59.606 "/> <rect x="196.669" y="149.344" transform="matrix(-0.7071 -0.7071 0.7071 -0.7071 276.4512 579.9149)" style="fill:#0E4675;" width="123.322" height="166.718"/> <path style="fill:#FC7576;" d="M461.856,82.52c-39.771,12.416-83.955,10.539-98.684-4.19c-14.731-14.731,5.57-36.736,45.342-49.152 s83.955-10.539,98.684,4.192C521.928,48.099,501.627,70.104,461.856,82.52z"/> <path style="fill:#3D7A94;" d="M268.364,324.277L166.756,222.668L7.499,381.926c-9.998,9.998-9.998,26.359,0,36.357l65.252,65.252 c9.998,9.998,26.359,9.998,36.357,0L268.364,324.277z"/> <g> <path style="fill:#6BADB4;" d="M124.724,337.415c-5.02-5.02-13.159-5.02-18.178,0l-89.959,89.959l18.178,18.178l89.959-89.959 C129.743,350.574,129.743,342.435,124.724,337.415z"/> <path style="fill:#6BADB4;" d="M194.023,249.936l-55.665,55.665c-5.02,5.02-5.02,13.159,0,18.178c5.02,5.02,13.159,5.02,18.178,0 l55.665-55.665L194.023,249.936z"/> </g> </g>

</svg>