<svg width="31" height="24" viewBox="0 0 31 24" fill="none" xmlns="http://www.w3.org/2000/svg">
<path d="M4.79999 10.375C6.45468 10.375 7.79999 8.91758 7.79999 7.125C7.79999 5.33242 6.45468 3.875 4.79999 3.875C3.1453 3.875 1.79999 5.33242 1.79999 7.125C1.79999 8.91758 3.1453 10.375 4.79999 10.375ZM25.8 10.375C27.4547 10.375 28.8 8.91758 28.8 7.125C28.8 5.33242 27.4547 3.875 25.8 3.875C24.1453 3.875 22.8 5.33242 22.8 7.125C22.8 8.91758 24.1453 10.375 25.8 10.375ZM27.3 12H24.3C23.475 12 22.7297 12.3605 22.1859 12.9445C24.075 14.0668 25.4156 16.093 25.7062 18.5H28.8C29.6297 18.5 30.3 17.7738 30.3 16.875V15.25C30.3 13.4574 28.9547 12 27.3 12ZM15.3 12C18.2015 12 20.55 9.45586 20.55 6.3125C20.55 3.16914 18.2015 0.625 15.3 0.625C12.3984 0.625 10.05 3.16914 10.05 6.3125C10.05 9.45586 12.3984 12 15.3 12ZM18.9 13.625H18.5109C17.5359 14.1328 16.4531 14.4375 15.3 14.4375C14.1469 14.4375 13.0687 14.1328 12.0891 13.625H11.7C8.71874 13.625 6.29999 16.2453 6.29999 19.475V20.9375C6.29999 22.2832 7.3078 23.375 8.54999 23.375H22.05C23.2922 23.375 24.3 22.2832 24.3 20.9375V19.475C24.3 16.2453 21.8812 13.625 18.9 13.625ZM8.41405 12.9445C7.8703 12.3605 7.12499 12 6.29999 12H3.29999C1.6453 12 0.299988 13.4574 0.299988 15.25V16.875C0.299988 17.7738 0.9703 18.5 1.79999 18.5H4.88905C5.18436 16.093 6.52499 14.0668 8.41405 12.9445Z" fill="#0B7077"/>
</svg>
