<svg width="109" height="31" viewBox="0 0 109 31" fill="none" xmlns="http://www.w3.org/2000/svg">
<g clip-path="url(#clip0_8_8175)">
<rect x="79.3104" y="0.088501" width="29.1892" height="29.1892" rx="14.5946" transform="rotate(-0.173721 79.3104 0.088501)" fill="#FFE75C"/>
<path d="M101.805 29.6926C101.91 30.114 101.918 30.554 101.828 30.979C101.738 31.4042 101.552 31.803 101.286 32.1459C101.019 32.4886 100.677 32.7663 100.287 32.9576C99.897 33.149 99.4687 33.2491 99.0341 33.2504L93.0977 33.2684L90.321 34.8336L90.3207 34.7505C89.0546 34.7544 88.327 34.3414 88.8734 29.6903C88.6203 28.3833 87.4424 23.2392 86.7873 19.4012C86.1954 15.8951 87.4992 14.6042 91.1047 12.5591C92.6268 7.98796 96.6127 8.24572 97.389 10.9833C98.1653 13.7208 100.733 25.3576 101.805 29.6926Z" fill="#66BCFF"/>
<path d="M101.805 29.6925C101.258 27.4524 100.291 23.304 99.3866 19.4252L94.7361 19.0865L91.153 21.6297L89.0858 24.4173L88.0316 25.8528C88.4106 27.6367 88.7261 29.0887 88.8526 29.711C88.3062 34.3622 89.034 34.7752 90.3001 34.7713L93.9696 33.2034L102.478 32.5757C102.268 31.6423 102.036 30.6674 101.805 29.6925Z" fill="#EB459F"/>
<path d="M92.2849 27.3846C92.5419 25.8354 92.4022 24.5215 91.9723 24.4501C91.5426 24.3788 90.9858 25.5769 90.7286 27.1264C90.4713 28.6756 90.6113 29.9893 91.041 30.0606C91.4706 30.132 92.0276 28.9339 92.2849 27.3846Z" fill="black"/>
<path d="M89.5604 23.5441C89.7668 23.1699 89.9942 22.7956 90.2215 22.4628C92.5568 19.0723 94.754 18.1523 96.8712 18.1459L99.5073 18.1379C99.5467 18.1388 99.5852 18.1491 99.6199 18.1677C99.6544 18.1863 99.6842 18.213 99.7065 18.2453C99.7288 18.2776 99.7432 18.3147 99.7485 18.3537C99.7538 18.3927 99.7498 18.4324 99.7368 18.4693L99.3866 19.4252C95.3391 19.4375 93.9065 19.3173 90.5546 22.8561L89.0858 24.4173L89.5604 23.5441Z" fill="#D11583"/>
<path d="M90.555 22.9806C89.165 23.2339 88.0671 23.9638 87.4483 25.2526C87.2726 25.6101 87.0182 25.9231 86.7039 26.1681L82.9759 28.8986C82.5569 29.1979 82.2656 29.6436 82.1594 30.1475C82.0534 30.6514 82.1403 31.1767 82.403 31.6195C82.5862 31.9303 82.8479 32.1873 83.1616 32.3648C83.4756 32.5424 83.8306 32.6343 84.1911 32.6311L85.7479 32.6264C88.9804 30.8108 90.4712 29.5816 91.2371 28.8735C92.0029 28.1655 92.8501 26.8967 92.7004 25.4442C92.5507 23.9917 92.1316 22.6853 90.555 22.9806Z" fill="white"/>
<path d="M91.6848 12.246C91.1841 11.4173 90.5165 10.3192 90.2659 9.80103C90.0152 9.28287 89.4137 9.40923 90.2717 11.7314C88.1937 10.9489 87.7587 11.2409 87.6558 11.5318C87.5529 11.8227 88.01 11.9666 88.8832 12.4621C89.7565 12.9576 90.6924 13.5567 90.6924 13.5567L91.6848 12.246Z" fill="#66BCFF"/>
<path d="M93.8437 12.3017C94.1952 11.8647 94.3185 11.387 94.1104 11.2215C93.9024 11.0561 93.6741 11.1398 93.364 11.5559C93.2302 11.7251 93.0852 11.8851 92.9296 12.0346C92.5777 12.3678 92.6615 12.6166 92.828 12.7614C92.9945 12.9062 93.4921 12.7387 93.8437 12.3017Z" fill="black"/>
<path d="M97.3684 11.0041C97.3684 11.0041 94.895 9.89069 93.8343 9.20893C92.7736 8.52717 92.2309 7.51173 92.7075 7.24045C93.1841 6.96917 94.0995 7.60985 94.7455 8.43817C94.7203 6.96451 94.9684 6.65242 95.3627 6.63047C95.757 6.60852 95.8001 7.18956 95.8234 8.01976C95.8466 8.84997 95.9932 9.18163 96.6176 9.74017C96.9914 10.0747 97.2534 10.5158 97.3684 11.0041Z" fill="#3442D9"/>
<path d="M88.3189 17.9228C87.7377 17.9245 87.238 17.4279 87.692 16.5547C88.146 15.6816 89.6377 14.8053 90.3632 14.471C91.0886 14.1366 91.422 14.4677 91.4435 14.7168C91.465 14.9658 91.3621 15.3397 90.8452 16.0055C90.3283 16.6713 89.3775 17.9196 88.3189 17.9228Z" fill="white"/>
<path d="M88.7751 17.8591L88.4226 17.9225L87.9193 16.2219L88.2089 15.9097L88.7751 17.8591Z" fill="#8CD9FF"/>
<path d="M90.0593 16.9419L89.7698 17.2334L89.182 15.1387L89.4927 14.9302L90.0593 16.9419Z" fill="#8CD9FF"/>
<path d="M91.2174 15.4855L90.9485 15.8599L90.529 14.4082L90.8817 14.3448L91.2174 15.4855Z" fill="#8CD9FF"/>
<path d="M90.7566 14.1584C91.1414 14.3407 91.537 14.4992 91.9414 14.6322" stroke="black" stroke-linecap="round" stroke-linejoin="round"/>
<path d="M100.038 22.1631C99.6401 21.8493 99.1528 21.6691 98.6462 21.6484C97.5669 21.6517 96.9681 22.7121 96.7637 23.7298C96.7307 23.8931 96.643 24.0399 96.5148 24.1461C96.3866 24.2524 96.226 24.3112 96.0597 24.3132L95.9144 24.3136C95.8207 24.2967 95.7314 24.261 95.6519 24.2085C95.5723 24.1563 95.5042 24.0884 95.4516 24.009C95.3991 23.9297 95.3629 23.8406 95.3458 23.747C95.3285 23.6532 95.3305 23.5571 95.3514 23.4643C95.7398 21.4912 97.0229 20.2211 98.6419 20.2162C98.9097 20.2187 99.1688 20.3122 99.3769 20.4813C99.5847 20.6503 99.7291 20.885 99.7863 21.1468L100.038 22.1631Z" fill="white"/>
<path d="M101.805 29.6925C101.851 29.878 101.859 30.071 101.829 30.2595C101.798 30.4483 101.73 30.6289 101.627 30.7903C101.525 30.9517 101.391 31.0905 101.233 31.1985C101.075 31.3067 100.897 31.3816 100.71 31.4187L100.191 31.4618C99.0082 31.4653 97.7812 30.7633 96.8226 29.5416C96.7653 29.4654 96.7233 29.3787 96.6994 29.2864C96.6755 29.1939 96.67 29.0978 96.6832 29.0034C96.6964 28.9089 96.7281 28.8179 96.7764 28.7357C96.8247 28.6534 96.8889 28.5816 96.9651 28.5241C97.04 28.4638 97.1267 28.4196 97.2194 28.394C97.3121 28.3686 97.4092 28.3623 97.5045 28.3755C97.5998 28.3889 97.6912 28.4214 97.7736 28.4716C97.8557 28.5216 97.9269 28.5878 97.9824 28.6663C98.6492 29.5153 99.4605 30.0317 100.187 30.0295C100.913 30.0273 101.348 29.6109 101.658 29.0703C101.7 29.2985 101.763 29.5058 101.805 29.6925Z" fill="#2331B5"/>
<path d="M100.396 23.7603C100.249 23.7616 100.107 23.8083 99.9881 23.8942C99.8695 23.9801 99.7804 24.101 99.7332 24.2398L98.8686 26.5879C98.7931 26.8084 98.7955 27.0481 98.8754 27.267C98.9556 27.486 99.1083 27.6707 99.3081 27.7905C99.3986 27.8456 99.5004 27.88 99.6057 27.8904C99.7111 27.9011 99.8176 27.8877 99.9173 27.8515C100.017 27.8153 100.107 27.7571 100.181 27.6813C100.255 27.6056 100.311 27.5141 100.345 27.4137L100.901 25.8968C100.753 25.2122 100.585 24.507 100.396 23.7603Z" fill="#5865F2"/>
<path d="M99.3082 27.7904C99.1083 27.6706 98.9556 27.486 98.8754 27.267C98.7955 27.0481 98.7931 26.8083 98.8686 26.5879L99.1157 25.9437C99.1571 25.8312 99.2224 25.7291 99.3068 25.6442C99.3915 25.5594 99.4934 25.494 99.6056 25.4521C99.7179 25.4105 99.8379 25.3935 99.9574 25.4025C100.077 25.4114 100.193 25.4462 100.298 25.5042C100.469 25.6035 100.6 25.759 100.669 25.9445C100.737 26.1299 100.739 26.3333 100.674 26.5201L100.345 27.4137C100.311 27.514 100.255 27.6055 100.181 27.6813C100.107 27.7571 100.017 27.8153 99.9173 27.8515C99.8176 27.8877 99.7112 27.9011 99.6057 27.8904C99.5004 27.8799 99.3986 27.8458 99.3082 27.7904Z" fill="#FFE75C"/>
</g>
<g clip-path="url(#clip1_8_8175)">
<rect x="63.7429" y="0.135712" width="29.1892" height="29.1892" rx="14.5946" transform="rotate(-0.173721 63.7429 0.135712)" fill="#3442D9"/>
<path d="M70.2533 11.5869C69.3937 8.76659 68.933 7.41879 70.4665 6.58386C71.9999 5.74894 76.6719 6.29521 78.8529 6.80752C81.0339 7.31983 81.3469 7.85856 79.9212 10.0008L70.2533 11.5869Z" fill="#FFF4B3"/>
<path d="M69.334 36.9754C68.9765 28.5907 69.1629 21.6158 69.4215 17.8996C68.028 16.9905 67.3824 16.2867 67.1114 15.8932C67.0551 15.8174 67.0262 15.7247 67.0298 15.6302C67.0333 15.536 67.0687 15.4456 67.1305 15.3742C69.3224 12.6069 71.2039 10.1934 73.1724 9.06654C75.1409 7.93971 77.8384 7.64093 82.148 11.9038C82.1892 11.9584 82.2098 12.0258 82.2063 12.0941C82.2027 12.1627 82.1751 12.2275 82.1284 12.2775C81.7881 12.6172 81.4288 12.9372 81.0519 13.2355C81.9284 14.7896 83.2017 17.1521 83.2017 17.1521L84.1981 17.149C84.8365 17.1471 85.4498 17.3989 85.9027 17.8492C86.3557 18.2993 86.6112 18.9108 86.6131 19.5495C86.6397 21.4798 86.1901 23.806 85.3067 26.7976C89.3018 30.0236 88.347 36.897 88.347 36.897L69.334 36.9754Z" fill="#29CC7A"/>
<path d="M85.3067 26.7976C85.4299 26.3613 85.5532 25.9666 85.6558 25.5511L82.5268 27.3042C82.5268 27.3042 77.5558 23.9774 69.2261 21.927C69.0925 25.7882 69.0876 31.0189 69.334 36.9754L88.3471 36.9177C88.3471 36.9177 89.3018 30.0235 85.3067 26.7976Z" fill="#8CD9FF"/>
<path d="M86.0977 27.5632C85.8549 27.2872 85.5903 27.0313 85.3067 26.7976C85.4299 26.3613 85.5532 25.9666 85.6557 25.5511L82.5268 27.3042C82.5268 27.3042 77.5558 23.9774 69.2261 21.927C69.2068 22.4044 69.1876 22.9234 69.1892 23.4423C75.5695 26.0591 79.008 30.5737 79.4217 36.9448L84.1335 36.9305C84.9527 33.2748 85.6072 30.0763 86.0977 27.5632Z" fill="#BAE8FF"/>
<path d="M71.7302 19.4908L71.8133 19.4906C71.8546 19.4489 71.8961 19.4281 71.9167 19.3657L73.7048 13.5276C73.7168 13.5031 73.7235 13.4763 73.7241 13.4489C73.7246 13.4217 73.7193 13.3945 73.7083 13.3697C73.6974 13.3446 73.6809 13.3222 73.6605 13.3042C73.6399 13.2862 73.6158 13.273 73.5894 13.2654C73.5633 13.2578 73.5356 13.256 73.5087 13.26C73.4817 13.2643 73.456 13.2743 73.4332 13.2895C73.4106 13.3048 73.3916 13.3247 73.3773 13.3482C73.3633 13.3715 73.3544 13.3977 73.3516 13.4249L71.6252 19.076C70.8709 18.757 70.1472 18.37 69.463 17.9202L69.4215 17.9203C69.4218 18.0449 69.4015 18.1902 69.4019 18.3148C70.1204 18.774 70.8788 19.1677 71.668 19.491L71.7302 19.4908Z" fill="black"/>
<path d="M79.4233 10.0854L71.9941 10.6476C80.3015 12.2 80.6551 12.4272 79.4233 10.0854Z" fill="black"/>
<path d="M77.5826 15.49C77.8691 15.3733 77.9191 14.8309 77.6941 14.2789C77.4691 13.727 77.0545 13.3741 76.7678 13.4908C76.4811 13.6077 76.4313 14.1499 76.6563 14.7019C76.8811 15.254 77.2959 15.6069 77.5826 15.49Z" fill="black"/>
<path d="M79.7258 16.6312C80.0938 15.931 80.0467 15.1818 79.6205 14.9579C79.1943 14.7338 78.5506 15.1199 78.1824 15.8199C77.8144 16.5201 77.8617 17.2693 78.2877 17.4934C78.7139 17.7174 79.3579 17.3314 79.7258 16.6312Z" stroke="white" stroke-miterlimit="10"/>
<path d="M82.7823 16.6261C83.1503 15.9261 83.1032 15.1769 82.677 14.9528C82.2508 14.7289 81.6071 15.1148 81.2391 15.815C80.8711 16.5152 80.9182 17.2644 81.3444 17.4883C81.7706 17.7123 82.4144 17.3263 82.7823 16.6261Z" stroke="white" stroke-miterlimit="10"/>
<path d="M80.6792 15.3803C80.8703 15.3025 80.8499 14.8092 80.6335 14.2783C80.4173 13.7476 80.087 13.3803 79.8958 13.4583C79.7049 13.5361 79.7253 14.0295 79.9415 14.5604C80.1579 15.0911 80.4883 15.4583 80.6792 15.3803Z" fill="black"/>
<path d="M82.6732 20.8068C81.0706 20.8168 79.5138 20.2715 78.268 19.2634C76.9779 18.2087 77.4964 18.0826 78.3059 18.0594C79.1153 18.0362 82.9973 18.1697 84.1186 18.3323C85.24 18.495 85.4543 20.7153 82.6732 20.8068Z" fill="#912869"/>
<path d="M82.6732 20.8068C81.0706 20.8168 79.5138 20.2715 78.268 19.2634C76.9779 18.2087 77.4964 18.0826 78.3059 18.0594C79.1153 18.0362 82.9973 18.1697 84.1186 18.3323C85.24 18.495 85.4543 20.7153 82.6732 20.8068Z" fill="#611B46"/>
<path d="M82.5972 23.1318L82.5118 22.3641C83.0981 22.3156 83.669 22.1516 84.1917 21.8816" stroke="black" stroke-linecap="round" stroke-linejoin="round"/>
<path d="M83.4408 20.7007C82.3167 19.6248 80.799 18.8198 77.9974 19.0152C80.4119 21.2288 82.9223 20.8476 83.4408 20.7007Z" fill="#EB459F"/>
<path d="M79.8561 15.896L81.1222 15.8922" stroke="white" stroke-miterlimit="10"/>
<path d="M77.9472 16.1508L72.5853 13.9876C72.4729 13.9444 72.3516 13.9292 72.2321 13.9428C72.1124 13.9567 71.9979 13.9992 71.8981 14.0667C71.7985 14.1343 71.7165 14.225 71.6596 14.3311C71.6024 14.4371 71.5718 14.5553 71.5703 14.6757C71.5683 14.8175 71.609 14.9564 71.6872 15.0747C71.7651 15.1928 71.8771 15.2848 72.0082 15.3386L72.3616 15.5036" stroke="white" stroke-miterlimit="10" stroke-linecap="round"/>
<path d="M76.8181 13.4351C77.2393 13.4446 77.6597 13.3873 78.063 13.2653" stroke="black" stroke-miterlimit="10" stroke-linecap="round"/>
<path d="M79.9317 13.4257C80.1972 13.4317 80.4604 13.3741 80.6991 13.2573" stroke="black" stroke-miterlimit="10" stroke-linecap="round"/>
<path d="M70.9569 10.8582C78.3667 10.732 80.8757 9.8941 82.9906 9.11969C85.1054 8.34527 84.8961 7.74395 83.2772 7.81113C81.6584 7.87831 76.1228 10.0123 70.9569 10.8582Z" fill="#FFF4B3"/>
<path d="M70.9568 10.8583L73.4885 10.643L79.5666 9.42068L78.0468 7.93079L70.8027 7.95276L70.9568 10.8583Z" fill="#FFF4B3"/>
<path d="M83.2473 18.4803L81.7941 18.4017C81.9628 19.2729 82.3793 19.7283 82.7317 19.582C83.0841 19.4356 83.2063 18.6672 83.2473 18.4803Z" fill="white"/>
<path d="M78.7633 18.3071C78.9531 19.3028 79.3283 19.8206 79.6807 19.6535C80.0331 19.4864 80.1136 18.6558 80.1748 18.3235L78.7633 18.3071Z" fill="white"/>
<path d="M80.4147 8.44256C77.2181 9.30937 73.9775 10.0051 70.7068 10.5269" stroke="#FFC619" stroke-width="2" stroke-miterlimit="10" stroke-linecap="round"/>
</g>
<g clip-path="url(#clip2_8_8175)">
<rect x="42.3406" y="1.17352" width="29.1892" height="29.1892" rx="14.5946" transform="rotate(-0.173721 42.3406 1.17352)" fill="#7196FF"/>
<path d="M53.3166 26.0908L52.6773 26.7285L57.3476 31.3313L57.9869 30.6935L53.3166 26.0908Z" fill="#2E3338"/>
<path d="M56.2278 26.0889L55.5885 26.7266L60.2587 31.3293L60.8981 30.6916L56.2278 26.0889Z" fill="#2E3338"/>
<path d="M61.471 25.274C62.6731 24.0692 63.4145 22.4869 63.5677 20.799C63.721 19.1111 63.2763 17.423 62.3105 16.025L59.2807 11.6356L55.7122 11.6464L55.7292 17.2569C55.7307 17.7443 55.5368 18.2122 55.1904 18.5579C54.8438 18.9035 54.373 19.0985 53.8814 19.1L48.1443 19.1174L48.1481 20.3881C48.1538 22.2564 48.9064 24.0461 50.2409 25.3649C51.5754 26.6838 53.383 27.4242 55.2672 27.4236L56.312 27.4204C58.2479 27.3984 60.0989 26.6284 61.471 25.274Z" fill="#FFD836"/>
<path d="M59.2744 9.58324C60.2208 9.58037 61.1296 9.9504 61.8008 10.6119C62.472 11.2735 62.8507 12.1723 62.8536 13.1107L62.8564 14.0295L55.7193 14.0511L55.7165 13.1128C55.7189 12.1778 56.0945 11.2816 56.7612 10.6203C57.4278 9.95892 58.3314 9.58608 59.2744 9.58324Z" fill="#FFD836"/>
<path d="M63.8973 12.7165C64.0696 12.8844 64.2058 13.0851 64.2979 13.3065C64.3901 13.528 64.4363 13.7656 64.4335 14.0051L61.0227 14.0154C60.896 14.0133 60.7725 13.9745 60.6678 13.9038C60.5629 13.833 60.4812 13.7335 60.4327 13.6173C60.3842 13.5012 60.3709 13.3735 60.3946 13.25C60.4183 13.1265 60.4778 13.0125 60.5659 12.9221L61.254 12.2358L61.251 11.2584C61.2505 11.1321 61.2993 11.0105 61.3872 10.9191C61.4752 10.8277 61.5954 10.7737 61.7226 10.7682C61.8526 10.7748 61.9771 10.8224 62.0779 10.904L63.8973 12.7165Z" fill="#FF9A15"/>
<path d="M59.2744 9.58309L58.2294 9.58626C56.9433 9.58856 55.7085 9.08632 54.7947 8.18916L54.2803 7.62381L54.2813 7.97569C54.2848 9.1163 54.7451 10.2088 55.561 11.0129C56.3768 11.8169 57.4814 12.2667 58.6318 12.2632L59.2627 12.2613L59.2744 9.58309Z" fill="#FFD836"/>
<path d="M54.2123 11.2014L57.071 11.1927L57.0796 14.0272L54.2123 11.2014Z" fill="#FFD836"/>
<path d="M49.8084 21.8492C50.345 22.9768 51.299 23.856 52.4724 24.3042C53.6458 24.7524 54.9482 24.7353 56.1091 24.2561C57.2699 23.777 58.2002 22.8728 58.7063 21.7315C59.2124 20.5901 59.2556 19.2993 58.8269 18.1272L49.8084 21.8492Z" fill="#FF9A15"/>
<path d="M44.9801 15.9992L47.215 18.2992C47.5083 18.5846 47.7418 18.9248 47.902 19.3C48.0622 19.6754 48.1459 20.0783 48.1482 20.4858L49.7452 20.481L49.7418 19.3668C49.7381 18.7441 49.5262 18.1403 49.1395 17.6498C48.7527 17.1593 48.2128 16.8098 47.6043 16.656L44.9801 15.9992Z" fill="#FFD836"/>
<path d="M49.1911 19.8181L49.0142 19.9945C48.9416 20.064 48.85 20.1107 48.7508 20.1287C48.6515 20.1468 48.5491 20.1355 48.4565 20.0961C48.3636 20.0567 48.2847 19.991 48.2295 19.9074C48.1742 19.8237 48.145 19.7258 48.1456 19.6257L48.13 14.4845L49.178 15.5174C49.7481 16.0896 50.0689 16.8607 50.0714 17.665C50.0738 18.4693 49.7577 19.2425 49.1911 19.8181Z" fill="#FFD836"/>
<path d="M59.4993 12.2606C59.7498 12.2599 59.9522 12.0579 59.9514 11.8096C59.9507 11.5613 59.7471 11.3606 59.4966 11.3614C59.2461 11.3621 59.0437 11.5641 59.0445 11.8124C59.0452 12.0607 59.2488 12.2614 59.4993 12.2606Z" fill="#202225"/>
</g>
<g clip-path="url(#clip3_8_8175)">
<rect x="21.4232" y="1.72339" width="29.1892" height="29.1892" rx="14.5946" transform="rotate(-0.173721 21.4232 1.72339)" fill="#FF78B9"/>
<path d="M45.2227 35.9592C46.2083 33.8764 43.5382 30.5464 39.2587 28.521C34.9793 26.4957 30.711 26.5422 29.7254 28.6251C28.7397 30.7077 31.4098 34.0379 35.6894 36.0632C39.9687 38.0884 44.237 38.0418 45.2227 35.9592Z" fill="black"/>
<path d="M45.7418 24.4416C44.4732 23.6567 44.411 23.6776 43.7015 22.4136C42.9919 21.1496 42.0975 20.5296 41.0592 20.3875L42.3744 29.7033C45.0751 30.4839 46.7315 29.1089 47.101 27.7586C47.4706 26.4083 47.0311 25.2264 45.7418 24.4416Z" fill="#3442D9"/>
<path d="M44.4793 25.67C44.1218 24.1558 43.1824 22.3944 42.0783 21.0693C41.6826 20.5906 41.4013 20.0279 41.2557 19.424C41.11 18.8203 41.1037 18.1912 41.2374 17.5847L41.6878 15.5076C42.0045 14.066 41.8287 12.5599 41.1889 11.2299C40.5489 9.89983 39.4816 8.82265 38.1576 8.17042C37.3978 7.7992 36.5715 7.58297 35.7271 7.53433C34.1383 7.42278 32.5685 7.93473 31.3509 8.96149C30.1333 9.98827 29.3638 11.4491 29.2054 13.0339C29.1718 13.3024 29.1587 13.5731 29.1664 13.8435L29.1691 14.7361L29.2219 18.4722C29.272 20.1506 28.9213 21.8166 28.1988 23.3323C27.8988 23.9337 27.671 24.5686 27.5195 25.2233L37.7023 35.986C42.5361 35.1618 45.5524 30.4824 44.4793 25.67Z" fill="#3442D9"/>
<path d="M37.7231 35.9858C42.5362 35.1617 45.5525 30.4823 44.4793 25.6699C44.1428 24.2387 43.2868 22.5808 42.2658 21.2969" stroke="black" stroke-miterlimit="10" stroke-linecap="round"/>
<path d="M41.2422 25.9912C42.1922 24.4108 42.5665 24.6172 44.2699 25.0687C45.6409 25.4174 47.2269 28.2148 45.1348 29.6326C43.0426 31.0504 38.7642 30.2123 41.2422 25.9912Z" fill="#3442D9"/>
<path d="M36.4962 21.3533C36.6871 21.2064 36.717 20.9255 36.5632 20.7254C36.4094 20.5256 36.1301 20.4826 35.9394 20.6293C35.7487 20.7763 35.7186 21.0572 35.8724 21.257C36.0262 21.4571 36.3055 21.5 36.4962 21.3533Z" fill="black"/>
<path d="M39.1112 21.5076C39.3019 21.3609 39.332 21.0798 39.1782 20.88C39.0244 20.6801 38.7451 20.637 38.5541 20.7839C38.3634 20.9306 38.3333 21.2117 38.4871 21.4116C38.6409 21.6114 38.9202 21.6546 39.1112 21.5076Z" fill="black"/>
<path d="M38.8406 21.1829C41.0671 23.0027 40.1577 24.3132 41.951 27.0061" stroke="white" stroke-miterlimit="10" stroke-linecap="round"/>
<path d="M36.3414 25.2795C37.7085 24.3206 38.1228 24.0495 38.6418 24.0687L39.9913 24.1891L39.6551 29.6699L36.2299 29.5765L36.3414 25.2795Z" fill="#FFC619"/>
<path d="M42.9794 23.8687C43.0051 23.7962 43.0134 23.7185 43.004 23.6422C42.9946 23.5658 42.9676 23.4926 42.9253 23.4284C42.8828 23.3642 42.8262 23.3106 42.7596 23.272C42.6929 23.2334 42.6183 23.2107 42.5415 23.2058L40.2572 22.8806C40.0915 22.8635 39.9248 22.9038 39.7853 22.995C39.6457 23.0861 39.5417 23.2224 39.4907 23.3811L38.2183 28.159C38.1928 28.2318 38.1843 28.3092 38.1937 28.3856C38.203 28.4619 38.23 28.5351 38.2724 28.5993C38.3149 28.6635 38.3715 28.7171 38.4383 28.7557C38.5048 28.7944 38.5794 28.817 38.6562 28.8219L40.9404 29.1471C41.1063 29.1642 41.2729 29.1239 41.4125 29.0328C41.5519 28.9416 41.6559 28.8054 41.7069 28.6466L42.9794 23.8687Z" fill="black"/>
<path d="M42.8741 23.3917L43.1241 23.6815L42.4393 23.7459L42.8741 23.3917Z" fill="black"/>
<path d="M44.0046 26.5432C43.7125 26.0666 43.4409 25.4655 42.6518 25.3434L42.551 26.34L44.0046 26.5432Z" fill="#FFC619"/>
<path d="M43.2085 24.1378C43.2301 24.0653 43.2354 23.9889 43.2242 23.914C43.213 23.8391 43.1856 23.7676 43.1439 23.7044C43.1022 23.6413 43.0472 23.5881 42.9827 23.5484C42.9183 23.5088 42.8457 23.4837 42.7706 23.475L40.4656 23.1498C40.3005 23.1364 40.1354 23.1784 39.9968 23.269C39.8581 23.3597 39.7532 23.4937 39.6991 23.6503L38.4267 28.4283C38.4051 28.5008 38.3997 28.5772 38.4109 28.6521C38.4222 28.727 38.4496 28.7985 38.4913 28.8617C38.533 28.9249 38.588 28.9782 38.6524 29.0177C38.7171 29.0574 38.7894 29.0825 38.8646 29.0912L41.1695 29.3955C41.3311 29.4216 41.4966 29.3868 41.6342 29.2984C41.7717 29.2098 41.872 29.0737 41.9153 28.9158L43.2085 24.1378Z" fill="white"/>
<path d="M42.5085 26.0289L43.4429 26.1713C43.6323 26.1917 43.8059 26.2856 43.9267 26.4326C44.0476 26.5798 44.1057 26.7686 44.0888 26.9581C44.0843 27.0567 44.0593 27.1533 44.0153 27.2417C43.9712 27.3298 43.9092 27.408 43.8332 27.4708C43.757 27.5337 43.6687 27.5798 43.5735 27.6063C43.4785 27.6329 43.3789 27.6392 43.2813 27.6248L42.596 27.5231C42.3832 27.4932 42.1861 27.3938 42.0353 27.2404C41.8848 27.0869 41.7891 26.8881 41.7632 26.6746C41.7577 26.5795 41.7742 26.4844 41.8113 26.3967C41.8484 26.309 41.9052 26.231 41.9771 26.1685C42.0491 26.1062 42.1345 26.0611 42.2266 26.037C42.3187 26.0128 42.4152 26.01 42.5085 26.0289Z" fill="#FFC619"/>
<path d="M42.2014 27.4204L42.8451 27.5222C42.9529 27.5356 43.0564 27.572 43.1485 27.6293C43.2406 27.6865 43.3191 27.7633 43.3786 27.8538C43.4382 27.9445 43.4773 28.0471 43.4932 28.1544C43.5091 28.2617 43.5013 28.3711 43.4707 28.4752C43.427 28.6426 43.3216 28.7874 43.1755 28.8802C43.0295 28.973 42.8538 29.0072 42.6835 28.9757L42.2889 28.9146C42.0736 28.8856 41.8736 28.787 41.7195 28.6339C41.5655 28.4807 41.4657 28.2814 41.4353 28.0662C41.429 27.9689 41.4457 27.8717 41.4839 27.7819C41.5222 27.6923 41.5809 27.6128 41.6554 27.5499C41.73 27.4872 41.8181 27.4428 41.913 27.4203C42.0078 27.3978 42.1066 27.3979 42.2014 27.4204Z" fill="#FFC619"/>
<path d="M40.1951 29.7928L37.9525 29.4882L38.0535 28.5746L40.2962 28.8999L40.1951 29.7928Z" fill="#FFC619"/>
<path d="M40.7237 26.1588L39.3116 25.9555C39.2444 25.9466 39.1812 25.9183 39.1294 25.8745C39.0777 25.8304 39.0398 25.7724 39.0203 25.7073L38.8946 25.334L38.7885 24.5664L38.0287 27.2671L40.3129 27.5922C40.5256 27.62 40.7413 27.5754 40.9255 27.4656C41.1097 27.3559 41.2516 27.1875 41.3282 26.9872C41.3526 26.8923 41.3556 26.7931 41.3373 26.6968C41.3187 26.6005 41.2792 26.5095 41.2215 26.4304C41.1637 26.3511 41.089 26.2857 41.0031 26.2389C40.9171 26.1918 40.8217 26.1645 40.7237 26.1588Z" fill="#FFC619"/>
<path d="M40.2713 27.5716L38.0287 27.2671L38.137 28.7612L39.8606 29.0051C40.0709 29.0358 40.2852 28.992 40.4667 28.8816C40.6482 28.7713 40.7855 28.6008 40.8551 28.4001C40.8832 28.3066 40.8898 28.208 40.8743 28.1115C40.8587 28.0151 40.8212 27.9236 40.7651 27.8437C40.7089 27.7639 40.6352 27.698 40.5495 27.6507C40.4641 27.6036 40.3689 27.5765 40.2713 27.5716Z" fill="#FFC619"/>
<path d="M56.1988 36.6771C56.2542 34.4352 54.4058 34.0879 53.1373 33.303C51.8687 32.5181 50.3692 30.8621 48.8091 29.746C47.2489 28.6298 45.8998 28.6547 43.2662 29.4722L46.2936 35.3164C47.9983 36.1831 48.3748 37.1367 49.292 38.4209C50.2092 39.705 51.4354 40.1995 52.6593 39.9674C53.306 41.0241 53.4313 41.2728 54.3643 40.9378C55.2974 40.6029 56.8312 39.8925 57.2426 38.6666C57.6541 37.4407 57.0515 37.235 56.1988 36.6771Z" fill="#66BCFF"/>
<path d="M46.1586 31.8711C45.8823 32.7631 45.7043 33.6823 45.6272 34.6127" stroke="black" stroke-width="2" stroke-miterlimit="10" stroke-linecap="round"/>
<path d="M47.416 42.661C45.5323 44.3687 43.9326 43.8962 43.1851 43.8154C42.4376 43.7346 42.519 43.1947 42.4553 42.7383C42.3917 42.2818 42.3481 41.597 42.3481 41.597C40.4588 41.4781 40.2266 40.1919 40.1816 39.0504C40.1367 37.9089 39.8456 37.7438 39.6978 36.9347C37.4191 36.5325 35.2639 35.6112 33.3987 34.2417C31.5334 32.8724 30.0089 31.0918 28.9426 29.0382L30.9101 27.6L35.3192 30.4511C38.2841 29.342 39.9222 28.7766 41.5201 28.668C43.1181 28.5593 44.6974 29.1565 45.223 31.3759C45.7487 33.5953 45.813 34.28 46.2936 35.3372C46.419 35.6066 46.6277 35.9796 46.8365 36.3734C47.4212 37.5547 48.0282 39.2135 46.8506 41.0229C46.9965 41.5827 47.1856 42.1305 47.416 42.661Z" fill="#8CD9FF"/>
<path d="M32.1726 33.2212C32.1059 31.7477 32.6632 30.7081 33.6798 30.539L31.1005 28.7617L29.2349 29.5769C29.7163 30.9039 30.9454 32.3531 32.1726 33.2212Z" fill="black"/>
<path d="M36.382 24.9889C35.7785 24.4718 35.322 24.5147 34.5964 24.8282C33.8263 24.1248 32.8297 24.0241 31.7929 24.3801C30.7562 24.7361 29.1593 25.2184 28.226 25.4703C28.174 25.4899 28.1173 25.4941 28.0629 25.4824C28.0085 25.4705 27.9586 25.4435 27.9191 25.4044C27.8797 25.365 27.8524 25.3153 27.8404 25.261C27.8282 25.2066 27.8321 25.1499 27.8513 25.0978L28.5287 22.6049C26.3128 24.2722 25.5971 27.8238 26.3086 29.752C27.0202 31.6802 30.0921 31.6502 31.0661 31.1075C32.04 30.5649 32.3716 30.3978 33.4931 30.602C34.6146 30.8062 35.4868 30.9488 36.9571 29.8235L37.828 29.5303C38.1544 27.6404 37.8597 26.2713 36.382 24.9889Z" fill="#3442D9"/>
<path d="M36.3821 24.9888C35.7786 24.4717 35.3221 24.5146 34.5966 24.8281C33.8264 24.1247 32.8298 24.024 31.793 24.38C30.7563 24.736 29.1595 25.2182 28.2262 25.4702" stroke="black" stroke-miterlimit="10" stroke-linecap="round"/>
<path d="M34.5964 24.8282C35.2179 25.3064 35.7359 25.9055 36.1197 26.5891C36.5035 27.273 36.7449 28.0274 36.8295 28.8067" stroke="black" stroke-miterlimit="10" stroke-linecap="round"/>
<path d="M40.8839 24.1865C40.8932 24.1578 40.8962 24.1275 40.8926 24.0974C40.889 24.0675 40.8789 24.0387 40.8629 24.0132C40.847 23.9875 40.8258 23.9656 40.8006 23.9491C40.7754 23.9325 40.747 23.9216 40.7171 23.9171L40.5095 23.9178C40.4518 23.9053 40.3914 23.9158 40.3412 23.9469C40.2909 23.978 40.2547 24.0273 40.2402 24.0846L40.0554 24.7702C40.046 24.8005 40.0436 24.8325 40.0485 24.8638C40.0533 24.8951 40.0652 24.9248 40.0832 24.9509C40.1013 24.9768 40.1252 24.9983 40.1529 25.0138C40.1805 25.029 40.2115 25.0379 40.2431 25.0394L40.4506 25.0388C40.5052 25.0457 40.5604 25.0325 40.6062 25.0018C40.6518 24.9712 40.6848 24.9252 40.6992 24.872L40.8839 24.1865Z" fill="#29CC7A"/>
<path d="M37.5507 20.2112C37.7101 19.8859 37.9461 19.6042 38.2381 19.39C38.5304 19.1758 38.8701 19.0357 39.2282 18.9815C39.2698 18.9813 39.2904 18.9398 39.2696 18.9191C38.9967 17.9236 39.1196 17.3628 39.4702 16.6352C39.4737 16.6299 39.476 16.6239 39.4768 16.6177C39.4776 16.6114 39.477 16.605 39.4751 16.599C39.473 16.593 39.4697 16.5875 39.4651 16.583C39.4607 16.5785 39.4553 16.5751 39.4493 16.573C38.2854 16.0784 37.847 15.2494 37.7206 14.6271C37.6997 14.5857 37.6373 14.5651 37.6167 14.6067C37.1009 15.6461 36.3953 15.6897 35.7931 15.6085C35.7516 15.6086 35.731 15.6502 35.7518 15.6709C36.3573 16.8315 35.9239 17.6631 35.3237 18.2461C35.3206 18.2542 35.319 18.263 35.3195 18.2717C35.3199 18.2805 35.3222 18.289 35.3262 18.2968C35.3301 18.3047 35.3356 18.3116 35.3424 18.3171C35.3491 18.3226 35.357 18.3267 35.3655 18.329C36.5285 18.533 37.1535 19.2991 37.4468 20.1908C37.4677 20.2322 37.53 20.2528 37.5507 20.2112Z" fill="#FFC619"/>
<path d="M40.2714 27.5716L39.0878 27.4092" stroke="black" stroke-miterlimit="10" stroke-linecap="round"/>
<path d="M42.4299 27.5028L43.0945 27.6046" stroke="black" stroke-miterlimit="10" stroke-linecap="round"/>
<path d="M37.6789 14.5857C38.1943 13.4218 38.1503 12.6124 38.0036 12.1562" stroke="black" stroke-miterlimit="10" stroke-linecap="round"/>
<path d="M39.3456 16.6148C39.6695 16.6635 40.0003 16.6418 40.3151 16.5513C40.6302 16.4608 40.9219 16.3036 41.1706 16.0904" stroke="black" stroke-miterlimit="10" stroke-linecap="round"/>
<path d="M37.5507 20.2112C37.5528 20.3656 37.5323 20.5197 37.4898 20.668" stroke="black" stroke-miterlimit="10" stroke-linecap="round"/>
<path d="M35.4276 18.2666C34.6613 18.8086 33.4986 18.7291 32.6884 18.4825" stroke="black" stroke-miterlimit="10" stroke-linecap="round"/>
<path d="M35.7931 15.6085C35.5007 15.0074 34.9589 14.3241 34.4601 14.0973" stroke="black" stroke-miterlimit="10" stroke-linecap="round"/>
<path d="M39.2697 18.919C39.5378 19.0611 39.8246 19.165 40.1216 19.2278" stroke="black" stroke-miterlimit="10" stroke-linecap="round"/>
<path d="M37.0419 16.7049C37.3989 18.0738 37.8553 17.9894 38.0616 17.5736C38.2679 17.1579 38.4117 16.6385 38.7439 16.679C39.0761 16.7195 38.9949 17.301 38.603 18.1324C38.2111 18.9639 37.5682 19.1526 36.9641 18.428C36.36 17.7033 36.3371 16.9977 36.3148 16.4996C36.2925 16.0015 36.8111 15.8754 37.0419 16.7049Z" fill="#C40655"/>
<path d="M36.2247 21.0248C36.4825 23.8885 35.0337 25.2628 34.5857 28.1079" stroke="white" stroke-miterlimit="10" stroke-linecap="round"/>
<path d="M39.5318 36.956C39.1545 35.7324 38.9817 33.4912 39.9928 31.5163" stroke="black" stroke-width="2" stroke-miterlimit="10" stroke-linecap="round"/>
<path d="M29.0349 25.2394L27.5004 25.7422" stroke="black" stroke-miterlimit="10" stroke-linecap="round"/>
<path d="M44.2905 25.0064L45.3292 25.2938" stroke="black" stroke-miterlimit="10" stroke-linecap="round"/>
</g>
<g clip-path="url(#clip4_8_8175)">
<rect x="0.504395" y="1.7868" width="29.1892" height="29.1892" rx="14.5946" transform="rotate(-0.173721 0.504395 1.7868)" fill="url(#paint0_linear_8_8175)"/>
<path d="M27.0187 13.372C28.5294 7.55434 29.2608 6.52114 32.7967 14.0094L27.0187 13.372Z" fill="#D4E1FF"/>
<path d="M12.5856 25.835L12.447 25.9552C14.5567 27.9328 17.7688 33.021 22.6304 32.7491C22.6304 32.7491 26.5824 39.9186 30.8084 39.1127C35.0344 38.306 38.1518 32.3444 38.1518 32.3444C39.2906 30.2867 40.0946 28.0608 40.5337 25.7503C40.4726 25.2153 40.2729 24.7988 39.8952 24.542C36.8718 22.5479 14.7842 24.222 12.5856 25.835Z" fill="#1C1B29"/>
<path d="M18.9527 11.095L23.3823 12.2716C24.6977 11.7046 26.1164 11.4168 27.5487 11.4265C34.2971 11.406 37.9064 16.8707 37.9268 23.5957C37.9472 30.3216 34.3711 35.808 27.6227 35.8284C20.8735 35.8489 17.2843 30.3842 17.2639 23.6584C17.2568 22.668 17.3334 21.6788 17.4928 20.7013C17.9422 18.1205 17.8128 15.4707 17.1117 12.9456C17.0435 12.6903 17.0434 12.4216 17.1115 12.1663C17.1797 11.911 17.3136 11.6781 17.5 11.4908C17.6863 11.3035 17.9185 11.1683 18.1735 11.0989C18.4284 11.0294 18.6971 11.0281 18.9527 11.095Z" fill="#B3CAFF"/>
<path d="M37.6978 26.5134C34.4269 27.9714 31.0481 26.4532 27.7872 24.5988C24.2276 22.5661 21.929 17.3948 20.9516 15.7513C19.9743 14.1069 18.5832 13.7945 17.6237 11.3972C17.397 11.5775 17.228 11.8201 17.1372 12.0951C17.0463 12.3702 17.0378 12.6657 17.1125 12.9456C17.8131 15.4709 17.943 18.1204 17.4928 20.7021C17.3335 21.6794 17.2569 22.6683 17.2639 23.6584C17.2843 30.3842 20.8936 35.8489 27.6227 35.8285C33.3594 35.8111 36.8011 31.8326 37.6978 26.5126L37.6978 26.5134Z" fill="#8DAEF7"/>
<path d="M37.0964 24.5103C37.1122 29.748 34.0089 34.0035 30.1775 34.0151C26.3469 34.0267 23.237 29.7901 23.2212 24.5524C23.1949 15.9028 28.5955 22.9691 32.4269 22.9575C36.2575 22.9459 37.1727 17.0907 37.0964 24.5103Z" fill="#FCFDFF"/>
<path d="M30.2789 29.5814C30.6508 29.549 30.908 29.0275 30.8555 28.4161C30.8023 27.8047 30.4577 27.3357 30.0865 27.3674C29.7154 27.4006 29.4574 27.9221 29.5107 28.5327C29.564 29.144 29.9077 29.6139 30.2789 29.5814ZM34.8361 28.5543C34.9451 27.9505 34.7361 27.4071 34.3687 27.3415C34.0021 27.2751 33.6161 27.711 33.507 28.3148C33.3988 28.9179 33.6077 29.4612 33.9744 29.5276C34.341 29.594 34.727 29.1581 34.8361 28.5543Z" fill="#1C1B29"/>
<path d="M50.355 89.583C47.5378 90.187 39.0776 82.1777 39.0776 82.1777C41.4221 89.471 41.8257 91.6523 42.2283 93.5355C42.631 95.4195 42.3935 95.7971 42.2392 97.1266C42.0841 98.4562 42.084 98.4169 42.883 100.081C43.682 101.744 44.2022 102.914 44.3631 103.767C44.4241 104.262 44.4055 104.764 44.3081 105.254L8.83706 105.362C8.83706 105.362 8.65546 104.569 9.40333 102.364C10.1512 100.16 11.8725 98.3301 12.8206 96.9378C13.7694 95.5463 13.7103 95.6855 13.4506 95.111C12.2512 92.2973 14.1784 92.907 14.9796 88.6785C15.78 84.4501 15.9777 64.2926 17.7583 56.0546C19.5398 47.8158 22.2933 45.8628 22.4712 39.0576C19.1068 35.9338 10.7651 27.8044 12.447 25.9543C14.3577 27.7341 20.0769 28.5902 24.7415 28.5367C25.1507 28.5296 25.5517 28.6517 25.8874 28.8857C26.2231 29.1197 26.4765 29.4537 26.6114 29.8401C27.4126 32.2379 29.4319 36.9737 32.5864 36.3486C35.741 35.7243 38.0655 30.0826 38.715 28.0371C38.8519 27.5906 39.1377 27.2046 39.5249 26.9434C39.9473 26.6277 40.2923 26.2199 40.5338 25.751C40.9828 29.6575 34.5229 40.0327 34.5229 40.0327C34.5229 40.0327 36.1735 54.0742 39.4034 58.6866C42.6325 63.2998 51.6646 63.2724 51.8957 67.6761C52.1276 72.079 53.152 88.979 50.355 89.583Z" fill="#BD4070"/>
<path d="M22.9008 30.2081C20.558 30.0762 17.4012 29.6888 12.3318 27.1849C13.154 30.138 19.6249 36.3879 22.4712 39.0576C22.4348 41.1683 22.0591 43.2594 21.3585 45.2509C23.9297 48.8736 27.0195 46.5033 27.6065 56.6989C27.8575 61.0431 31.0708 66.8062 34.4246 73.0455C37.7783 79.2847 38.1999 67.7963 38.0438 62.1429C37.9549 59.0678 37.3286 55.2608 36.6619 51.6323C35.2366 46.1409 34.5229 40.0327 34.5229 40.0327C34.5229 40.0327 39.0467 32.7579 40.2629 28.112C39.9533 28.3057 39.7115 28.5909 39.5711 28.9273C38.3481 31.7071 36.9781 34.4199 35.467 37.0542C33.9064 39.6979 30.9926 41.0157 27.622 35.8284C24.2521 30.6403 25.4221 30.3595 22.9008 30.2081Z" fill="#A12C66"/>
<path d="M24.3402 20.4829C27.8392 22.1582 29.0567 24.2977 31.8553 24.2096C34.6538 24.1216 35.741 22.7691 36.867 20.9608C36.4075 19.9698 35.1662 22.9492 32.4268 22.9575C29.6875 22.9658 26.1037 19.3068 24.3402 20.4829Z" fill="#8DAEF7"/>
</g>
<defs>
<linearGradient id="paint0_linear_8_8175" x1="15.099" y1="31.1084" x2="15.099" y2="10.2001" gradientUnits="userSpaceOnUse">
<stop stop-color="#7196FF"/>
<stop offset="1" stop-color="#2A5EE8"/>
</linearGradient>
<clipPath id="clip0_8_8175">
<rect x="79.3104" y="0.088501" width="29.1892" height="29.1892" rx="14.5946" transform="rotate(-0.173721 79.3104 0.088501)" fill="white"/>
</clipPath>
<clipPath id="clip1_8_8175">
<rect x="63.7429" y="0.135712" width="29.1892" height="29.1892" rx="14.5946" transform="rotate(-0.173721 63.7429 0.135712)" fill="white"/>
</clipPath>
<clipPath id="clip2_8_8175">
<rect x="42.3406" y="1.17352" width="29.1892" height="29.1892" rx="14.5946" transform="rotate(-0.173721 42.3406 1.17352)" fill="white"/>
</clipPath>
<clipPath id="clip3_8_8175">
<rect x="21.4232" y="1.72339" width="29.1892" height="29.1892" rx="14.5946" transform="rotate(-0.173721 21.4232 1.72339)" fill="white"/>
</clipPath>
<clipPath id="clip4_8_8175">
<rect x="0.504395" y="1.7868" width="29.1892" height="29.1892" rx="14.5946" transform="rotate(-0.173721 0.504395 1.7868)" fill="white"/>
</clipPath>
</defs>
</svg>
